<svg width="26" height="28" viewBox="0 0 26 28" fill="none" xmlns="http://www.w3.org/2000/svg">
<g id="Group">
<path id="Vector" d="M8.68359 19.1731C10.6803 21.1698 15.5364 19.5511 19.5299 15.5577C23.5234 11.5642 25.142 6.70818 23.1453 4.71143" stroke="#AFAFAF" stroke-width="2.5" stroke-linecap="round" stroke-linejoin="round"/>
<path id="Vector_2" d="M14.5586 3.35547L15.4624 4.25933" stroke="#AFAFAF" stroke-width="2.5" stroke-linecap="round" stroke-linejoin="round"/>
<path id="Vector_3" d="M11.3945 6.51904L12.2984 7.42289" stroke="#AFAFAF" stroke-width="2.5" stroke-linecap="round" stroke-linejoin="round"/>
<path id="Vector_4" d="M8.68359 10.1348L9.58744 11.0386" stroke="#AFAFAF" stroke-width="2.5" stroke-linecap="round" stroke-linejoin="round"/>
<path id="Vector_5" d="M7.7793 14.6538L8.68314 15.5577" stroke="#AFAFAF" stroke-width="2.5" stroke-linecap="round" stroke-linejoin="round"/>
<path id="Vector_6" d="M19.5293 2L20.4331 2.90385" stroke="#AFAFAF" stroke-width="2.5" stroke-linecap="round" stroke-linejoin="round"/>
<path id="Vector_7" d="M18.625 7.42334L20.4328 9.23103" stroke="#AFAFAF" stroke-width="2.5" stroke-linecap="round" stroke-linejoin="round"/>
<path id="Vector_8" d="M15.4629 10.5864L17.2706 12.3941" stroke="#AFAFAF" stroke-width="2.5" stroke-linecap="round" stroke-linejoin="round"/>
<path id="Vector_9" d="M11.8457 13.2983L13.6534 15.1061" stroke="#AFAFAF" stroke-width="2.5" stroke-linecap="round" stroke-linejoin="round"/>
<path id="Vector_10" d="M8.68195 21.8847C9.43073 21.136 9.43073 19.9219 8.68195 19.1732C7.93318 18.4244 6.71917 18.4244 5.97039 19.1732L2.35497 22.7886C1.60619 23.5374 1.60619 24.7514 2.35497 25.5001C3.10375 26.2489 4.31776 26.2489 5.06653 25.5001L8.68195 21.8847Z" stroke="#AFAFAF" stroke-width="2.5" stroke-linecap="round" stroke-linejoin="round"/>
</g>
</svg>
